Coordinates
version=1
nRows=17
nColumns=36
inDegrees=yes

Units are S.I. units (second, meters, Newtons, ...)
If the header above contains a line with 'inDegrees', this indicates whether rotational values are in degrees (yes) or radians (no).

endheader
time	pelvis_tilt	pelvis_list	pelvis_rotation	pelvis_tx	pelvis_ty	pelvis_tz	hip_flexion_r	hip_adduction_r	hip_rotation_r	knee_angle_r	knee_angle_r_beta	ankle_angle_r	subtalar_angle_r	mtp_angle_r	hip_flexion_l	hip_adduction_l	hip_rotation_l	knee_angle_l	knee_angle_l_beta	ankle_angle_l	subtalar_angle_l	mtp_angle_l	lumbar_extension	lumbar_bending	lumbar_rotation	arm_flex_r	arm_add_r	arm_rot_r	elbow_flex_r	pro_sup_r	arm_flex_l	arm_add_l	arm_rot_l	elbow_flex_l	pro_sup_l
      0.82000000	    -10.45781029	      0.27254857	      6.79011126	     -0.76363917	      1.51118141	     -0.56818250	     36.04394161	     -2.88661139	      1.79628614	     71.89177039	      1.25474810	    -18.36367801	     -9.85120583	     -5.42001647	     36.08961350	     -2.68218722	      5.74420987	     73.97234136	      1.29106091	    -22.83084080	    -19.07174408	     -5.42001647	    -22.68647432	     -4.34525477	     -1.44767455	    -30.50768509	    -28.38398200	    -27.28944175	    115.99062328	    111.82503598	     10.60713938	    -37.07688722	      6.05828660	    116.98526589	    108.62014811
      0.83000000	    -10.46458269	      0.33595303	      6.78594752	     -0.75638133	      1.51307098	     -0.56570107	     37.55071796	     -2.96481923	      1.78513202	     72.78225691	      1.27029002	    -17.96703919	     -9.59931208	     -5.46320837	     37.79420647	     -2.90435601	      5.99126887	     75.22656872	      1.31295131	    -23.03379747	    -18.56762223	     -5.46320837	    -23.49342913	     -4.63179087	     -1.48646946	    -30.27156690	    -27.74735149	    -26.63588479	    114.06150736	    111.72900280	     10.67474962	    -37.35972405	      5.73265286	    115.90171321	    108.78497341
      0.84000000	    -10.40806498	      0.43191071	      6.76293414	     -0.74898248	      1.51447542	     -0.56325023	     38.81320927	     -3.10199190	      1.74244955	     73.12564312	      1.27628324	    -17.60299051	     -9.22857939	     -5.49368977	     39.25384628	     -3.14913226	      6.13387829	     75.92073485	      1.32506679	    -23.38860526	    -18.06468442	     -5.49368977	    -24.37505443	     -4.97468603	     -1.49306752	    -29.89857510	    -27.13233377	    -25.87819872	    112.04859131	    111.61598903	     10.82652521	    -37.59460605	      5.53628008	    114.86447512	    108.89988128
      0.85000000	    -10.42413592	      0.49638304	      6.73878407	     -0.74145608	      1.51513130	     -0.56098031	     39.98287718	     -3.27611820	      1.59744309	     72.93095647	      1.27288532	    -17.25838848	     -8.78283259	     -5.52751711	     40.64006793	     -3.43612274	      6.18189228	     76.11204348	      1.32840576	    -23.84830101	    -17.70648698	     -5.52751711	    -25.17262588	     -5.28573497	     -1.45735170	    -29.48325691	    -26.51372305	    -25.12013469	    110.04301085	    111.48963524	     10.91355843	    -37.72969550	      5.36936104	    113.92731059	    109.01926665
      0.86000000	    -10.50554154	      0.52151091	      6.69708440	     -0.73361281	      1.51510508	     -0.55882359	     41.02272366	     -3.44404612	      1.37273640	     72.20121990	      1.26014901	    -16.88426369	     -8.44260981	     -5.58878229	     41.91379266	     -3.77139212	      6.15910213	     75.78139568	      1.32263487	    -24.59031084	    -17.60989804	     -5.58878229	    -25.88108308	     -5.51463033	     -1.52038138	    -28.94200802	    -25.98443270	    -24.27613017	    108.10521579	    111.35406694	     10.67940513	    -37.83168854	      4.94171941	    113.11206887	    109.17490956
      0.87000000	    -10.48429004	      0.51987545	      6.63912492	     -0.72537831	      1.51465118	     -0.55663360	     41.73544120	     -3.57464609	      1.08302109	     70.94179908	      1.23816797	    -16.58174449	     -8.46345411	     -5.60135310	     42.87803825	     -4.17772656	      6.10327314	     74.95505295	      1.30821246	    -25.19013973	    -17.22388320	     -5.60135310	    -26.68265090	     -5.67187118	     -1.39444346	    -28.55745720	    -25.30280867	    -23.82719125	    106.41726304	    111.26031900	     10.68407867	    -37.85913123	      4.75435811	    112.15452995	    109.09727470
      0.88000000	    -10.58459246	      0.51230570	      6.59883908	     -0.71693200	      1.51334688	     -0.55448515	     42.40421804	     -3.74313702	      0.76599825	     69.28098081	      1.20918122	    -16.18604313	     -8.47952793	     -5.61660686	     43.79285101	     -4.56238897	      6.04920057	     73.66570248	      1.28570905	    -25.87019512	    -16.82379662	     -5.61660686	    -27.31494572	     -5.85590024	     -1.30467093	    -28.16430136	    -24.67154952	    -23.21053164	    104.79617519	    111.08143774	     10.65998797	    -37.98717688	      4.68809125	    111.28494959	    108.94458749
      0.89000000	    -10.74574483	      0.49603189	      6.56109735	     -0.70824954	      1.51122179	     -0.55240009	     42.96233292	     -3.92217609	      0.41465309	     67.23130638	      1.17340766	    -15.82838684	     -8.50687061	     -5.63278557	     44.60229283	     -4.96326042	      5.92423001	     71.96605377	      1.25604459	    -26.58503522	    -16.50554474	     -5.63278557	    -27.85168541	     -6.05098866	     -1.20386272	    -27.83563765	    -24.11391427	    -22.51860657	    103.28633848	    110.93349607	     10.57472082	    -38.18586300	      4.68055900	    110.54322578	    108.80835793
      0.90000000	    -11.00790106	      0.49143309	      6.51019187	     -0.69924056	      1.50813412	     -0.55046856	     43.44962625	     -4.10303260	      0.08398340	     64.82569560	      1.13142183	    -15.56282943	     -8.57867205	     -5.64556950	     45.30840816	     -5.33349418	      5.74634514	     69.88280746	      1.21968508	    -27.08332696	    -16.25866013	     -5.64556950	    -28.25579075	     -6.20422640	     -1.06357425	    -27.77727204	    -23.56726884	    -21.95237579	    102.22268326	    110.81158314	     10.34620043	    -38.36500802	      4.69903578	    109.98666933	    108.68326577
      0.91000000	    -11.38682848	      0.51014208	      6.53633732	     -0.68991875	      1.50419790	     -0.54870522	     43.88725526	     -4.35048972	     -0.32466013	     62.09025734	      1.08367942	    -15.86138658	     -9.13410727	     -5.77729894	     45.96395497	     -5.62116339	      5.49866262	     67.36223390	      1.17569277	    -28.57346575	    -16.60791554	     -5.77729894	    -28.48395276	     -6.39176845	     -1.43382723	    -27.23309232	    -23.37516213	    -20.65737495	    100.70407616	    111.05094102	      9.34498842	    -38.68860985	      3.95248079	    109.77464689	    108.79575523
      0.92000000	    -11.80213162	      0.56060245	      6.61400708	     -0.68039068	      1.49913911	     -0.54713365	     44.24531659	     -4.68270736	     -0.74852574	     59.17308452	      1.03276515	    -15.81090054	     -9.11638060	     -5.79551052	     46.48685650	     -5.81176460	      5.30265500	     64.58670814	      1.12725071	    -28.87848130	    -16.06163561	     -5.79551052	    -28.64349419	     -6.52419246	     -1.31274794	    -27.48620152	    -22.76648857	    -20.31109588	     99.90785244	    110.94112651	      9.06148754	    -38.88050159	      4.04543324	    109.31224915	    108.70275657
      0.93000000	    -12.26115478	      0.64104482	      6.71848773	     -0.67076888	      1.49298336	     -0.54574730	     44.54011743	     -5.06898741	     -1.18724706	     56.07843993	      0.97875342	    -16.00353533	     -9.07027537	     -5.81319485	     46.91659691	     -5.94290982	      5.03417438	     61.54692349	      1.07419646	    -29.10265235	    -15.52890325	     -5.81319485	    -28.71679742	     -6.66603402	     -1.22086043	    -27.88806619	    -22.22852948	    -19.92626094	     99.32262015	    110.85513945	      8.72575498	    -39.13848111	      4.16941807	    108.98526837	    108.62231142
      0.94000000	    -12.70393809	      0.74737824	      6.81159929	     -0.66101050	      1.48575799	     -0.54448267	     44.71435368	     -5.44158120	     -1.58626914	     52.82710265	      0.92200688	    -16.69897252	     -9.31998854	     -5.85481993	     47.19044178	     -6.05448651	      4.67912158	     58.31046666	      1.01770963	    -29.16082551	    -15.01017890	     -5.85481993	    -28.75199990	     -6.80175658	     -1.18253450	    -28.39607545	    -21.85836598	    -19.41839000	     99.00474710	    110.80345510	      8.22414208	    -39.49504716	      4.28080190	    108.88915263	    108.54031882
      0.95000000	    -13.21145572	      0.76217566	      6.95232606	     -0.65097915	      1.47719508	     -0.54330533	     44.85374183	     -5.71485723	     -1.92122414	     49.51363789	      0.86417601	    -16.86633740	     -9.03290607	     -5.87561761	     47.46976946	     -6.17712620	      4.40750267	     55.02267789	      0.96032689	    -28.73940594	    -14.53485401	     -5.87561761	    -28.60977344	     -6.78621746	     -1.10301906	    -29.16208016	    -21.46906271	    -19.10600211	     99.10185022	    110.55602962	      7.58644034	    -39.84160051	      4.44911407	    108.87239788	    108.31736354
      0.96000000	    -13.34253680	      0.77043776	      7.19650415	     -0.64017879	      1.46836379	     -0.54231737	     44.41741429	     -6.07843781	     -2.53534802	     46.00497721	      0.80293832	    -18.08062828	     -8.47505997	     -5.89664581	     47.23955645	     -6.32678546	      4.02237015	     51.59289004	      0.90046580	    -28.33726254	    -13.56101740	     -5.89664581	    -28.79863566	     -6.79811323	     -1.01969513	    -29.87133772	    -21.10983280	    -18.68228619	     98.84952195	    110.46765870	      7.04840138	    -40.26770865	      4.70580779	    108.90136831	    108.29923349
      0.97000000	    -13.46437800	      0.78607173	      7.42137667	     -0.62897623	      1.45834894	     -0.54148808	     43.93200868	     -6.43081035	     -3.13953495	     42.54500859	      0.74255048	    -19.40623681	     -7.91001853	     -5.91236134	     46.91915603	     -6.44730107	      3.59690231	     48.17052708	      0.84073430	    -27.54232304	    -12.52745415	     -5.91236134	    -28.89968494	     -6.92904900	     -0.76768603	    -30.77600153	    -20.74384679	    -18.35256707	     98.65203425	    110.50393352	      6.66539483	    -40.68743095	      5.16754265	    109.08877534	    108.42873469
      0.98000000	    -13.36878623	      0.82423885	      7.56470359	     -0.61759697	      1.44727317	     -0.54046778	     43.22439984	     -6.69598116	     -3.72372927	     39.18460288	      0.68390034	    -21.11022398	     -7.80026233	     -5.96049887	     46.35482292	     -6.68823072	      3.00526666	     44.89106284	      0.78349685	    -25.89631441	    -10.32326617	     -5.96049887	    -29.15172360	     -6.98699304	     -0.36027509	    -31.88157843	    -20.35738991	    -18.23668135	     98.87493200	    110.58918527	      6.47350885	    -41.16336282	      5.89635741	    109.20465853	    108.66369698
